<svg width="33" height="33" viewBox="0 0 33 33" fill="none" xmlns="http://www.w3.org/2000/svg">
<path d="M16.5051 33C11.4093 33 6.3233 33 1.2275 33C0.599111 33 0.0787305 32.5679 0.010001 31.9982C-0.0685471 31.3795 0.314375 30.7705 0.913304 30.6723C1.26677 30.6134 1.64969 30.633 2.01298 30.6527C2.29771 30.6723 2.37626 30.5839 2.37626 30.2991C2.35662 22.7071 2.36644 15.125 2.36644 7.53304C2.36644 5.45089 2.36644 3.35893 2.36644 1.27679C2.36644 0.471429 2.83773 0 3.64285 0C9.4554 0 15.2778 0 21.0903 0C21.9249 0 22.3962 0.461607 22.3962 1.28661C22.3962 4.27232 22.406 7.24821 22.3864 10.2339C22.3864 10.5384 22.4551 10.617 22.7595 10.617C24.9588 10.5973 27.1484 10.6071 29.3477 10.6071C30.1725 10.6071 30.6339 11.0687 30.6339 11.9036C30.6339 18.0125 30.6339 24.1312 30.6241 30.2402C30.6241 30.5446 30.6634 30.692 31.007 30.6429C31.2623 30.6036 31.5176 30.633 31.7827 30.633C32.47 30.6429 32.9805 31.1339 32.9904 31.792C32.9904 32.4795 32.4896 32.9804 31.7827 32.9804C26.6869 33 21.6009 33 16.5051 33ZM4.72288 16.5C4.72288 21.1062 4.72288 25.7027 4.71307 30.3089C4.71307 30.5839 4.77198 30.6625 5.0469 30.6527C5.60655 30.6232 6.17602 30.633 6.73568 30.6527C7.0106 30.6625 7.07933 30.5938 7.07933 30.3089C7.06951 28.0991 7.06951 25.8893 7.06951 23.6795C7.06951 22.8446 7.53098 22.3929 8.36555 22.3929C11.0264 22.3929 13.6872 22.3929 16.3578 22.3929C17.212 22.3929 17.6735 22.8446 17.6735 23.6991C17.6735 25.9089 17.6735 28.1187 17.6637 30.3286C17.6637 30.5839 17.7128 30.6625 17.9779 30.6527C18.5375 30.633 19.107 30.633 19.6667 30.6527C19.9514 30.6625 20.0299 30.5938 20.0299 30.2991C20.0201 21.1062 20.0201 11.9134 20.0299 2.72054C20.0299 2.39643 19.9318 2.35714 19.647 2.35714C14.7869 2.36696 9.92669 2.36696 5.06653 2.35714C4.75234 2.35714 4.69343 2.44554 4.69343 2.74018C4.72288 7.32679 4.72288 11.9134 4.72288 16.5ZM28.2873 21.8036C28.2873 18.9652 28.2873 16.1366 28.2971 13.2982C28.2971 13.0232 28.2382 12.9545 27.9535 12.9545C26.2156 12.9643 24.4679 12.9643 22.73 12.9545C22.4551 12.9545 22.3962 13.0232 22.3962 13.2982C22.406 18.9652 22.406 24.642 22.3962 30.3089C22.3962 30.5839 22.4551 30.6527 22.7398 30.6527C24.4777 30.6429 26.2254 30.6429 27.9633 30.6527C28.2382 30.6527 28.3069 30.5839 28.2971 30.3089C28.2775 27.4705 28.2873 24.642 28.2873 21.8036ZM12.342 30.6429C13.2453 30.6429 14.1585 30.633 15.0618 30.6429C15.268 30.6429 15.3269 30.5839 15.3269 30.3777C15.3171 28.5902 15.3171 26.7929 15.3269 25.0054C15.3269 24.7991 15.268 24.7402 15.0618 24.7402C13.2748 24.75 11.478 24.75 9.69105 24.7402C9.48486 24.7402 9.42595 24.7991 9.42595 25.0054C9.43577 26.7929 9.43577 28.5902 9.42595 30.3777C9.42595 30.5839 9.48486 30.6429 9.69105 30.6429C10.5747 30.633 11.4584 30.6429 12.342 30.6429Z" fill="white"/>
<path d="M8.85629 3.5357C9.35703 3.5357 9.85778 3.54552 10.3683 3.5357C10.5647 3.52588 10.6138 3.5848 10.6138 3.78123C10.604 4.4098 10.604 5.02855 10.6138 5.65712C10.6138 5.85355 10.5647 5.90266 10.3683 5.90266C9.34721 5.89284 8.33591 5.89284 7.31478 5.90266C7.11841 5.90266 7.06932 5.85355 7.06932 5.65712C7.07914 5.02855 7.07914 4.4098 7.06932 3.78123C7.06932 3.5848 7.11841 3.5357 7.31478 3.5357C7.82535 3.54552 8.34573 3.5357 8.85629 3.5357Z" fill="white"/>
<path d="M15.9158 5.89284C15.4052 5.89284 14.8849 5.88302 14.3743 5.89284C14.1976 5.89284 14.1485 5.84374 14.1485 5.66695C14.1583 5.02856 14.1583 4.39016 14.1485 3.75177C14.1485 3.57499 14.1976 3.52588 14.3743 3.52588C15.4052 3.5357 16.4362 3.5357 17.4671 3.52588C17.6439 3.52588 17.6929 3.57499 17.6929 3.75177C17.6831 4.39016 17.6831 5.02856 17.6929 5.66695C17.6929 5.84374 17.6439 5.89284 17.4671 5.89284C16.9369 5.88302 16.4264 5.89284 15.9158 5.89284Z" fill="white"/>
<path d="M8.85628 8.25C9.34721 8.25 9.83814 8.25982 10.3291 8.25C10.5451 8.24018 10.6236 8.27947 10.6236 8.525C10.604 9.12411 10.604 9.72322 10.6236 10.3321C10.6334 10.5482 10.5942 10.6268 10.3487 10.6268C9.35703 10.6071 8.36536 10.617 7.36387 10.6268C7.14786 10.6268 7.06932 10.5973 7.06932 10.3518C7.08895 9.75268 7.08895 9.15357 7.06932 8.54465C7.0595 8.27947 7.15768 8.25 7.38351 8.25982C7.87443 8.25982 8.36536 8.25 8.85628 8.25Z" fill="white"/>
<path d="M15.9158 8.25C16.4264 8.25 16.9467 8.25982 17.4573 8.25C17.634 8.25 17.6831 8.29911 17.6831 8.47589C17.6733 9.11429 17.6733 9.75268 17.6831 10.3911C17.6831 10.5679 17.6242 10.617 17.4573 10.617C16.4264 10.6071 15.3954 10.6071 14.3645 10.617C14.1877 10.617 14.1386 10.5679 14.1386 10.3911C14.1485 9.75268 14.1485 9.11429 14.1386 8.47589C14.1386 8.29911 14.1877 8.25 14.3645 8.25C14.8848 8.25982 15.3954 8.25 15.9158 8.25Z" fill="white"/>
<path d="M8.84647 15.3214C8.33591 15.3214 7.81553 15.3116 7.30497 15.3214C7.12823 15.3214 7.07914 15.2723 7.07914 15.0955C7.08896 14.4571 7.08896 13.8188 7.07914 13.1804C7.07914 13.0036 7.12823 12.9545 7.30497 12.9545C8.33591 12.9643 9.36685 12.9643 10.3978 12.9545C10.5745 12.9545 10.6236 13.0036 10.6236 13.1804C10.6138 13.8188 10.6138 14.4571 10.6236 15.0955C10.6236 15.2723 10.5745 15.3214 10.3978 15.3214C9.8676 15.3116 9.35703 15.3214 8.84647 15.3214Z" fill="white"/>
<path d="M15.9158 12.9643C16.4165 12.9643 16.9173 12.9643 17.4278 12.9643C17.5948 12.9643 17.6929 12.9741 17.6929 13.1902C17.6733 13.8286 17.6831 14.467 17.6929 15.1054C17.6929 15.292 17.634 15.3313 17.4671 15.3214C16.4362 15.3116 15.4052 15.3116 14.3743 15.3214C14.1877 15.3214 14.1485 15.2625 14.1485 15.0955C14.1583 14.4571 14.1583 13.8188 14.1485 13.1804C14.1485 12.9938 14.2074 12.9545 14.3743 12.9545C14.8849 12.9741 15.3954 12.9643 15.9158 12.9643Z" fill="white"/>
<path d="M8.8072 20.0357C8.30645 20.0357 7.80571 20.0259 7.29515 20.0357C7.12823 20.0357 7.0595 19.9964 7.06932 19.8098C7.07914 19.1714 7.07914 18.533 7.06932 17.8947C7.06932 17.7277 7.1086 17.6589 7.29515 17.6688C8.32609 17.6786 9.35703 17.6786 10.388 17.6688C10.5549 17.6688 10.6236 17.708 10.6138 17.8947C10.604 18.533 10.5942 19.1714 10.6138 19.8098C10.6236 20.0357 10.5156 20.0357 10.3487 20.0357C9.83814 20.0357 9.32758 20.0357 8.8072 20.0357Z" fill="white"/>
<path d="M15.9256 17.6786C16.4264 17.6786 16.9271 17.6884 17.4377 17.6786C17.634 17.6688 17.6831 17.7277 17.6831 17.9241C17.6733 18.5527 17.6733 19.1714 17.6831 19.8C17.6831 19.9964 17.634 20.0455 17.4377 20.0455C16.4165 20.0357 15.4052 20.0357 14.3841 20.0455C14.1877 20.0455 14.1386 19.9964 14.1386 19.8C14.1485 19.1714 14.1485 18.5527 14.1386 17.9241C14.1386 17.7277 14.1877 17.6786 14.3841 17.6786C14.8947 17.6884 15.415 17.6786 15.9256 17.6786Z" fill="white"/>
<path d="M25.3219 17.6785C24.8212 17.6785 24.3204 17.6687 23.8099 17.6785C23.6233 17.6785 23.5546 17.6491 23.5546 17.4428C23.5644 16.8143 23.5644 16.1955 23.5546 15.5669C23.5546 15.3803 23.5939 15.3116 23.7902 15.3116C24.8114 15.3214 25.8227 15.3214 26.8438 15.3116C27.0303 15.3116 27.0991 15.341 27.0991 15.5473C27.0893 16.1759 27.0794 16.7946 27.0991 17.4232C27.1089 17.6491 27.0107 17.6785 26.8242 17.6687C26.3332 17.6687 25.8227 17.6785 25.3219 17.6785Z" fill="white"/>
<path d="M25.3416 20.0357C25.8521 20.0357 26.3725 20.0455 26.8831 20.0357C27.0598 20.0357 27.1089 20.0848 27.1089 20.2616C27.0991 20.9 27.0991 21.5384 27.1089 22.1768C27.1089 22.3536 27.0598 22.4027 26.8831 22.4027C25.8521 22.3928 24.8212 22.3928 23.7902 22.4027C23.6135 22.4027 23.5644 22.3536 23.5644 22.1768C23.5742 21.5384 23.5742 20.9 23.5644 20.2616C23.5644 20.0848 23.6135 20.0357 23.7902 20.0357C24.3106 20.0455 24.8212 20.0357 25.3416 20.0357Z" fill="white"/>
<path d="M25.3416 27.1071C24.831 27.1071 24.3106 27.0973 23.8001 27.1071C23.6233 27.1071 23.5742 27.058 23.5742 26.8812C23.5841 26.2429 23.5841 25.6045 23.5742 24.9661C23.5742 24.7893 23.6233 24.7402 23.8001 24.7402C24.831 24.75 25.8619 24.75 26.8929 24.7402C27.0696 24.7402 27.1187 24.7893 27.1187 24.9661C27.1089 25.6045 27.1089 26.2429 27.1187 26.8812C27.1187 27.058 27.0696 27.1071 26.8929 27.1071C26.3627 27.0973 25.8521 27.1071 25.3416 27.1071Z" fill="white"/>
</svg>
