<svg width="27" height="23" viewBox="0 0 27 23" fill="none" xmlns="http://www.w3.org/2000/svg">
<path d="M0 20.0313V6.31907C0.0887758 6.28684 0.0574508 6.19555 0.0731172 6.1311C0.226138 5.44258 0.606243 4.82982 1.1489 4.39702C1.69156 3.96422 2.36325 3.73808 3.04969 3.75708C4.17245 3.75708 5.3004 3.75708 6.42315 3.75708C6.61115 3.75708 6.65818 3.7034 6.65296 3.51541C6.61445 3.03797 6.63905 2.55735 6.72608 2.0867C6.86244 1.47354 7.20372 0.929082 7.69043 0.548238C8.17715 0.167393 8.77841 -0.0256728 9.38934 0.00274328H15.447C16.2721 0.00274328 17.0972 0.00274328 17.9222 0.00274328C18.4318 0.0447123 18.9183 0.239614 19.3212 0.563285C19.724 0.886955 20.0256 1.32516 20.1886 1.82353C20.3264 2.36458 20.3741 2.92572 20.3296 3.48315C20.3296 3.68725 20.3766 3.74099 20.5751 3.74099C21.7761 3.74099 22.9825 3.74099 24.1835 3.74099C24.8556 3.77429 25.4959 4.04447 25.9971 4.50612C26.4982 4.96778 26.8297 5.59276 26.9356 6.27609C27.0008 6.95785 27.0165 7.64367 26.9826 8.32783C26.9826 12.007 26.9826 15.6808 26.9826 19.3599C27.0006 19.8565 26.9022 20.3502 26.6954 20.7994C26.4483 21.354 26.0448 21.8196 25.5373 22.1356C25.0299 22.4516 24.4418 22.6036 23.8493 22.5718H2.83034C2.22019 22.5425 1.63366 22.3205 1.15056 21.9361C0.667459 21.5517 0.311308 21.0235 0.130553 20.4234C0.0939979 20.3106 0.104442 20.1495 0 20.0313ZM13.4887 19.9561C15.2312 19.9505 16.9012 19.2375 18.1353 17.9722C19.3694 16.7069 20.068 14.9916 20.079 13.1993C20.0804 11.4011 19.3886 9.67561 18.1552 8.40103C16.9219 7.12645 15.2475 6.40676 13.4991 6.39965C11.7561 6.40526 10.0856 7.11807 8.85062 8.38323C7.61565 9.64839 6.91599 11.3637 6.90361 13.1564C6.90497 14.9547 7.59836 16.6794 8.83226 17.9535C10.0662 19.2276 11.7402 19.9476 13.4887 19.9561Z" fill="#C45C37"/>
<path d="M17.8435 13.1779C17.8408 14.3655 17.3802 15.5034 16.5627 16.3422C15.7453 17.1809 14.6378 17.6519 13.4831 17.6519C12.3339 17.6463 11.2333 17.1742 10.4207 16.3384C9.60801 15.5026 9.14905 14.3706 9.14355 13.1886C9.14492 12.0024 9.60257 10.8649 10.4166 10.0246C11.2307 9.18434 12.335 8.70949 13.4883 8.70382C14.6417 8.70665 15.747 9.17875 16.5631 10.017C17.3791 10.8553 17.8394 11.9917 17.8435 13.1779Z" fill="#C45C37"/>
</svg>
