<svg width="19" height="23" viewBox="0 0 19 23" fill="none" xmlns="http://www.w3.org/2000/svg">
<path d="M3.38446 22.7846C3.12199 22.7002 2.8551 22.6301 2.585 22.5747C1.09249 22.0628 0.200998 21.0333 0.057211 19.4689C-0.12731 17.618 0.13605 15.7499 0.825046 14.0222C1.19571 12.9708 1.9301 12.0865 2.8956 11.529C3.5402 11.1894 4.25768 11.0118 4.98624 11.0113C5.23193 11.0198 5.46941 11.1019 5.66778 11.2471C6.00137 11.4542 6.32635 11.6727 6.65994 11.8769C8.55793 13.0426 10.4549 13.0426 12.351 11.8769C12.6213 11.7101 12.8974 11.5462 13.1505 11.3564C13.362 11.2065 13.6024 11.1023 13.8563 11.0503C14.1103 10.9983 14.3723 10.9997 14.6257 11.0545C15.3116 11.143 15.9652 11.3992 16.5285 11.8004C17.0918 12.2017 17.5474 12.7357 17.8552 13.3551C18.4469 14.5092 18.8046 15.769 18.9077 17.0619C18.9805 17.7101 19.0103 18.3624 18.9969 19.0145C18.9566 21.0678 17.6366 22.5114 15.592 22.753C15.5603 22.753 15.5345 22.753 15.5258 22.799L3.38446 22.7846Z" fill="#C45C37"/>
<path d="M14.8471 5.52442C14.8357 6.97749 14.2505 8.36717 13.2189 9.39062C12.1874 10.4141 10.7931 10.9884 9.34003 10.9883C7.87839 10.9724 6.48264 10.3778 5.45852 9.33481C4.4344 8.29182 3.86539 6.88545 3.87613 5.42376C3.90483 3.96936 4.50514 2.58478 5.54712 1.56971C6.5891 0.554644 7.98891 -0.0092414 9.44356 0.000114592C10.8886 0.0287613 12.2646 0.623776 13.2753 1.65702C14.2859 2.69026 14.8504 4.07908 14.8471 5.52442Z" fill="#C45C37"/>
</svg>
