<svg width="30" height="33" viewBox="0 0 30 33" fill="none" xmlns="http://www.w3.org/2000/svg">
<g clip-path="url(#clip0_10_426)">
<path d="M4.27552 33C3.99005 32.8321 3.65917 32.7934 3.3737 32.6255C2.64057 32.1929 2.16696 31.5731 1.94637 30.7596C1.73876 29.9977 1.54412 29.2293 1.34948 28.461C1.26514 28.1317 1.3949 27.8605 1.6609 27.7895C1.94637 27.712 2.19291 27.8541 2.28374 28.1963C2.48486 28.9194 2.66652 29.6425 2.85467 30.3657C3.12068 31.3794 3.83434 31.9992 4.80753 32.0251C5.3071 32.038 5.78071 31.8636 6.26082 31.7603C6.90312 31.6247 7.53893 31.4698 8.17474 31.3277C9.45934 31.0436 10.2119 29.6942 9.7513 28.4739C8.7846 25.9041 7.81791 23.3344 6.8577 20.7646C6.77336 20.5387 6.67604 20.5193 6.46194 20.5774C5.25519 20.9261 4.04844 21.2683 2.8417 21.6105C1.94637 21.8623 1.36246 22.4111 1.19377 23.3473C1.13538 23.6637 1.18729 23.9671 1.26514 24.2706C1.40787 24.8388 1.5571 25.407 1.70632 25.9752C1.79715 26.3303 1.67388 26.6015 1.3949 26.6789C1.10294 26.7564 0.862891 26.6079 0.765573 26.2399C0.557961 25.4393 0.259518 24.658 0.207615 23.838C0.110296 22.3594 1.0186 21.1327 2.49135 20.6936C3.84083 20.2933 5.19031 19.9188 6.54628 19.5379C7.19507 19.3571 7.73357 18.9503 8.33694 18.6727C8.49265 18.6017 8.44075 18.4532 8.44723 18.3305C8.44723 17.0198 8.44723 15.7091 8.44723 14.3984C8.44723 13.8237 8.5705 13.2943 8.98573 12.8617C9.34256 12.4937 9.76428 12.2548 10.2898 12.2418C10.7958 12.2289 11.3019 12.216 11.808 12.2418C12.9239 12.3 13.6959 13.107 13.7219 14.224C13.7349 14.7341 13.7219 15.2506 13.7219 15.8124C14.0009 15.6703 14.2409 15.5347 14.4875 15.4121C14.6367 15.341 14.5848 15.2119 14.5848 15.1021C14.5913 13.6107 14.5848 12.1192 14.5848 10.6212C14.5848 9.85288 14.8248 9.18784 15.4542 8.70359C15.6683 8.53572 15.9018 8.40013 16.1678 8.34202C16.9269 8.1806 17.6925 8.14832 18.4321 8.38722C19.3209 8.67131 19.8659 9.54942 19.8659 10.6148C19.8659 13.8237 19.8659 17.0391 19.8659 20.2481C19.8659 20.3643 19.8659 20.4805 19.8659 20.6032C20.7223 20.5064 20.7223 20.5064 20.7223 19.6993C20.7223 15.1151 20.7223 10.5308 20.7223 5.94014C20.7223 4.75857 21.3452 3.8611 22.4546 3.6674C23.3564 3.51244 24.3101 3.42204 25.1276 4.03543C25.731 4.48739 25.9905 5.11369 26.0099 5.84975C26.0229 6.25652 26.0164 6.66329 26.0099 7.07652C26.0035 7.47037 25.8088 7.70281 25.5039 7.69635C25.199 7.69635 25.0108 7.46391 25.0043 7.07006C24.9978 6.63746 25.0108 6.21132 24.9978 5.77873C24.9784 5.06204 24.4853 4.57779 23.7651 4.57133C23.3888 4.57133 23.0125 4.51968 22.6362 4.61653C22.1107 4.75212 21.7863 5.1266 21.7344 5.66251C21.7279 5.75936 21.715 5.85621 21.715 5.95306C21.715 10.5696 21.715 15.1861 21.715 19.8091C21.715 19.8736 21.715 19.9382 21.715 20.0221C21.8966 20.0028 22.0264 19.9124 22.1497 19.8349C23.0969 19.2538 23.9792 18.5887 24.8681 17.9302C25.0238 17.8139 24.9978 17.6719 24.9978 17.5299C24.9978 14.8439 24.9978 12.1579 24.9978 9.47839C24.9978 9.32989 24.9914 9.17493 25.0497 9.03288C25.1276 8.83273 25.2833 8.71651 25.4909 8.71651C25.7115 8.71005 25.8802 8.82627 25.958 9.0458C26.01 9.18784 26.0035 9.3428 26.0035 9.49131C26.0035 11.8996 26.0035 14.3015 26.0035 16.7099C26.0035 16.8261 26.0035 16.9423 26.0035 17.0973C26.2305 16.981 26.4317 16.8584 26.6458 16.7744C27.8006 16.2966 28.9295 16.6259 29.5653 17.6138C30.2401 18.6662 30.1103 19.8155 29.1241 20.6484C27.34 22.1528 25.5169 23.612 23.7003 25.0777C22.8503 25.7621 21.8317 26.0591 20.7872 26.3045C17.5757 27.0728 14.3642 27.867 11.1527 28.6418C10.9516 28.6934 10.8413 28.7451 10.8802 28.9969C11.0813 30.4044 10.186 31.7668 8.84948 32.1606C7.70761 32.4964 6.55277 32.8063 5.36549 32.9548C5.33953 32.9548 5.32007 32.9936 5.30061 33.0129C4.96972 33 4.61938 33 4.27552 33ZM17.7574 21.6427C17.0956 21.604 16.356 21.6944 15.6293 21.5911C15.2141 21.533 14.9416 21.2812 14.8119 20.9067C14.6756 20.5257 14.734 20.1513 15.0195 19.8349C15.2465 19.5831 15.519 19.3894 15.7785 19.1892C16.5636 18.5887 17.0567 17.8204 17.2643 16.8584C17.3746 16.3354 17.0956 15.8705 16.583 15.7155C16.2587 15.6187 15.9926 15.7414 15.7266 15.8834C13.138 17.2522 10.5493 18.621 7.95415 19.9834C7.7141 20.1061 7.70761 20.2223 7.79196 20.4483C8.6808 22.7856 9.56315 25.1229 10.4325 27.4667C10.5363 27.7572 10.6661 27.7637 10.9126 27.6991C13.9749 26.9501 17.0437 26.2076 20.106 25.4522C21.0078 25.2326 21.9356 25.0648 22.7401 24.5482C23.3759 24.1415 23.9338 23.6314 24.5177 23.1601C25.7894 22.127 27.0545 21.0939 28.3196 20.0544C29.0009 19.4991 29.176 18.7502 28.7738 18.1626C28.2872 17.4459 27.4892 17.3103 26.7496 17.8204C25.5104 18.6791 24.2777 19.5379 23.0515 20.4095C22.2405 20.9842 21.3646 21.3845 20.3785 21.5459C19.5221 21.6879 18.6721 21.6234 17.7574 21.6427ZM15.6553 20.642C16.6739 20.642 17.6211 20.629 18.5683 20.6484C18.8279 20.6549 18.8862 20.5774 18.8798 20.332C18.8733 17.1102 18.8733 13.8948 18.8733 10.6729C18.8733 10.5567 18.8668 10.434 18.8603 10.3178C18.8084 9.78831 18.4386 9.38154 17.9196 9.27178C17.6081 9.20721 17.2967 9.2395 16.9853 9.22658C16.1548 9.1943 15.5644 9.74312 15.5904 10.6148C15.6228 11.9126 15.6034 13.2103 15.5969 14.5081C15.5969 14.7406 15.5969 14.8374 15.8953 14.7599C17.2902 14.3984 18.5424 15.6445 18.2375 17.0456C17.9585 18.3369 17.2708 19.3377 16.2067 20.1061C16.0186 20.2416 15.811 20.3643 15.6553 20.642ZM9.44637 18.0851C10.5428 17.504 11.5874 16.9488 12.6384 16.3999C12.7163 16.3612 12.7422 16.3031 12.7422 16.2191C12.7228 15.5025 12.7876 14.7793 12.7098 14.0626C12.6514 13.5525 12.2556 13.2233 11.7366 13.2168C11.3408 13.2103 10.9386 13.2103 10.5428 13.2168C9.84213 13.2168 9.45286 13.6107 9.45286 14.3144C9.45286 14.9795 9.45286 15.6445 9.45286 16.3095C9.44637 16.8842 9.44637 17.4588 9.44637 18.0851Z" fill="white"/>
<path d="M14.5328 2.9894C14.3251 2.97648 14.1889 2.97648 14.0527 2.95066C13.2482 2.7957 12.8264 2.18877 12.8913 1.32358C12.9497 0.619801 13.592 0.0128746 14.3251 0.00641791C15.6616 -3.87484e-05 17.0046 -0.00649541 18.3411 0.00641791C19.1586 0.0128746 19.7425 0.593974 19.749 1.41397C19.762 2.75696 19.762 4.09994 19.749 5.44293C19.7425 6.18544 19.204 6.75363 18.432 6.87631C17.7378 6.98607 17.1409 6.59867 16.8943 5.88844C16.8035 5.62371 16.7451 5.35253 16.7711 5.06844C16.6413 5.0749 16.5959 5.17175 16.531 5.22986C15.3762 6.32749 14.2278 7.43158 13.0795 8.53567C12.4112 9.17488 11.8338 9.25881 11.0033 8.83267C10.6335 8.63898 10.2507 8.46465 9.89391 8.25158C9.67332 8.11599 9.55654 8.16764 9.38786 8.34197C7.15602 10.5889 4.9177 12.8229 2.68587 15.0698C2.19928 15.5605 1.65429 15.8059 0.973064 15.5347C-0.0260706 15.1408 -0.318026 13.9657 0.376179 13.1522C0.43457 13.0876 0.492961 13.023 0.551352 12.9649C3.06216 10.4468 5.56649 7.9352 8.0773 5.4171C8.79746 4.69395 9.34244 4.61002 10.2443 5.08135C10.6465 5.28797 11.0488 5.48812 11.4445 5.70119C11.5678 5.76576 11.6521 5.76576 11.7559 5.66245C12.6642 4.77789 13.579 3.90624 14.5328 2.9894ZM18.7823 3.42199C18.7823 2.78924 18.7888 2.15649 18.7823 1.52373C18.7758 1.14925 18.6266 0.981374 18.2568 0.981374C16.9917 0.974917 15.733 0.974917 14.4679 0.981374C14.0981 0.981374 13.8515 1.22027 13.8645 1.51728C13.8775 1.81428 14.111 2.00798 14.4744 2.00798C14.8442 2.01444 15.2075 2.01444 15.5773 2.00798C15.8498 2.00153 16.0963 2.03381 16.2196 2.32436C16.3429 2.62137 16.1612 2.80861 15.9666 2.9894C14.7014 4.20325 13.4298 5.41064 12.1712 6.63741C11.9181 6.88276 11.6651 6.91505 11.3602 6.75363C10.8217 6.46308 10.2767 6.1919 9.73172 5.91426C9.27756 5.68182 9.21268 5.69474 8.86234 6.0434C6.34504 8.56795 3.82774 11.0861 1.31692 13.6106C1.22609 13.701 1.13526 13.7978 1.07038 13.9076C0.947113 14.1078 0.992528 14.3015 1.12877 14.4758C1.25853 14.6437 1.45317 14.6889 1.65429 14.6437C1.82298 14.6049 1.9203 14.4693 2.03059 14.3531C4.36623 12.0158 6.69538 9.67204 9.03102 7.33473C9.38786 6.97316 9.51113 6.95379 9.96528 7.18623C10.4713 7.44449 10.9774 7.70922 11.4834 7.96748C11.9376 8.19992 12.0479 8.18701 12.4177 7.83189C13.8969 6.41788 15.3762 5.00387 16.8489 3.58987C17.0176 3.42845 17.2058 3.31223 17.4523 3.42199C17.6924 3.53176 17.7572 3.72546 17.7572 3.97081C17.7507 4.39049 17.7572 4.81017 17.7572 5.22986C17.7572 5.67537 17.9324 5.90135 18.2698 5.90781C18.6071 5.91426 18.7953 5.68182 18.7953 5.24277C18.7823 4.62293 18.7823 4.02246 18.7823 3.42199Z" fill="white"/>
<path d="M6.01428 30.8305C4.91133 30.7983 4.10684 29.9331 4.14576 28.8354C4.1782 27.8153 5.08002 26.9759 6.10511 27.0147C7.17561 27.0534 8.00606 27.938 7.96713 29.0033C7.93469 30.0235 7.03287 30.8628 6.01428 30.8305ZM6.05969 29.8491C6.56575 29.8427 6.98097 29.4359 6.98746 28.9323C6.99395 28.4287 6.55277 27.9896 6.04023 27.9961C5.53417 28.0025 5.11895 28.4158 5.11895 28.9194C5.11246 29.4359 5.53417 29.8491 6.05969 29.8491Z" fill="white"/>
</g>
<defs>
<clipPath id="clip0_10_426">
<rect width="30" height="33" fill="white"/>
</clipPath>
</defs>
</svg>
