<svg width="29" height="33" viewBox="0 0 29 33" fill="none" xmlns="http://www.w3.org/2000/svg">
<path d="M14.7633 0C18.7088 2.26016 22.6544 4.52891 26.5999 6.78906C27.2042 7.13281 27.8086 7.49375 28.4129 7.82891C28.8187 8.06094 29 8.39609 29 8.86016C29 13.9477 29 19.0437 29 24.1312C29 24.5953 28.8187 24.9305 28.4129 25.1625C23.958 27.7148 19.5118 30.2758 15.0655 32.8281C14.6856 33.043 14.323 33.0516 13.9345 32.8281C9.47097 30.2586 5.01608 27.6977 0.552545 25.1367C0.17267 24.9219 0 24.5953 0 24.1656C0 19.0609 0 13.9648 0 8.86016C0 8.39609 0.189938 8.06953 0.595713 7.8375C5.07651 5.26797 9.55731 2.68984 14.0381 0.111719C14.0899 0.0859375 14.1676 0.0773437 14.1762 0C14.3748 0 14.5648 0 14.7633 0ZM27.0402 16.5C27.0402 14.1883 27.0402 11.8852 27.0488 9.57344C27.0488 9.35859 26.9798 9.25547 26.7985 9.15234C22.7839 6.84922 18.7693 4.54609 14.7547 2.23438C14.5734 2.13125 14.4439 2.12266 14.2626 2.23438C10.2566 4.54609 6.24204 6.84922 2.22745 9.15234C2.03751 9.26406 1.95981 9.37578 1.95981 9.59922C1.96844 14.2055 1.96844 18.8117 1.95981 23.418C1.95981 23.6414 2.03751 23.7531 2.22745 23.8648C6.24204 26.168 10.2566 28.4711 14.2626 30.7828C14.4525 30.8859 14.5734 30.8859 14.7547 30.7828C18.7693 28.4711 22.7752 26.168 26.7985 23.8648C26.9798 23.7617 27.0488 23.6586 27.0488 23.4437C27.0316 21.1148 27.0402 18.8117 27.0402 16.5Z" fill="white"/>
<path d="M8.91843 17.0929C8.91843 15.8554 8.90979 14.6523 8.91843 13.4492C8.91843 12.8648 9.28967 12.4609 9.81631 12.4265C10.3861 12.3922 10.861 12.7961 10.8696 13.3633C10.8782 15.4429 10.8782 17.5312 10.8696 19.6109C10.8696 20.1437 10.4638 20.539 9.92855 20.5648C9.59184 20.582 9.26377 20.5648 8.92706 20.5734C8.41768 20.582 8.09824 20.3328 7.9083 19.8859C7.39029 18.657 6.88092 17.4195 6.3629 16.1906C6.32837 16.1133 6.30247 16.0359 6.2334 15.8726C6.21613 16.0359 6.2075 16.1219 6.2075 16.2078C6.2075 17.2906 6.2075 18.3734 6.2075 19.4648C6.2075 20.1094 5.85353 20.5304 5.31825 20.5648C4.69663 20.5992 4.24769 20.2297 4.24769 19.5937C4.23042 17.5312 4.23042 15.4687 4.24769 13.4062C4.24769 12.8304 4.6621 12.4523 5.24055 12.4351C5.55999 12.4265 5.88806 12.4351 6.2075 12.4351C6.69961 12.4265 7.01905 12.6586 7.20036 13.1054C7.71837 14.3344 8.23638 15.5719 8.75439 16.8008C8.77166 16.8867 8.78892 16.9984 8.91843 17.0929Z" fill="white"/>
<path d="M12.5618 16.5C12.5618 15.4945 12.5618 14.4805 12.5618 13.475C12.5618 12.8219 12.9416 12.4351 13.5978 12.4266C14.9101 12.418 16.231 12.418 17.5433 12.4266C18.1995 12.4266 18.5793 12.8047 18.5793 13.3976C18.5793 13.982 18.1649 14.3601 17.526 14.3687C16.6023 14.3687 15.6698 14.3773 14.7461 14.3687C14.5561 14.3687 14.4784 14.4031 14.487 14.6094C14.5043 15.0047 14.5043 15.4086 14.487 15.8039C14.4784 16.0359 14.5647 16.0617 14.7633 16.0617C15.3418 16.0531 15.9288 16.0531 16.5073 16.0617C17.1375 16.0617 17.5433 16.4484 17.5347 17.05C17.526 17.6172 17.1289 17.9953 16.5073 17.9953C15.9461 17.9953 15.3849 18.0125 14.8238 17.9867C14.5647 17.9781 14.4698 18.0297 14.487 18.3133C14.5129 18.743 14.4957 19.1726 14.4957 19.6023C14.487 20.1867 14.0985 20.5734 13.5287 20.582C12.9589 20.582 12.5618 20.1953 12.5531 19.6109C12.5531 18.5625 12.5618 17.5312 12.5618 16.5Z" fill="white"/>
<path d="M23.2932 17.0844C23.2932 17.9008 23.3019 18.7172 23.2932 19.5336C23.2932 19.9289 23.1465 20.2813 22.7666 20.4617C22.4126 20.6336 22.0586 20.6164 21.7219 20.3844C21.3939 20.161 21.3162 19.8258 21.3162 19.4563C21.3162 17.8664 21.3075 16.2766 21.3248 14.6867C21.3248 14.4117 21.2471 14.343 20.9881 14.3602C20.7291 14.386 20.4701 14.3774 20.2111 14.3602C19.6585 14.3344 19.2528 13.9133 19.2441 13.3891C19.2441 12.8563 19.6326 12.4352 20.2024 12.4266C21.6011 12.4094 23.0083 12.4094 24.407 12.4266C24.9681 12.4352 25.3653 12.8563 25.3567 13.3977C25.348 13.9305 24.9336 14.343 24.3897 14.3602C24.0962 14.3688 23.8026 14.3774 23.5177 14.3602C23.3278 14.3516 23.2846 14.4117 23.2846 14.5922C23.2932 15.4258 23.2932 16.2508 23.2932 17.0844Z" fill="white"/>
</svg>
