<svg width="27" height="19" viewBox="0 0 27 19" fill="none" xmlns="http://www.w3.org/2000/svg">
<path d="M0 16.5869V2.4361C0.0572727 2.4361 0.0518102 2.37726 0.059992 2.33888C0.376356 0.928912 1.7209 -0.00509691 3.29999 2.09269e-05C10.1182 0.0256101 16.9364 2.09269e-05 23.7545 2.09269e-05C25.6636 2.09269e-05 27 1.2462 27 3.04512V15.9549C27 17.7461 25.6718 19 23.7573 19H13.4755C10.0209 19 6.55908 19 3.08999 19C2.40226 19.0017 1.73363 18.7878 1.19015 18.3924C0.64668 17.997 0.259488 17.4426 0.089988 16.8172C0.0654426 16.7456 0.0818182 16.6432 0 16.5869ZM8.43817 14.7957H12.5455C12.6732 14.8095 12.8026 14.7961 12.924 14.7565C13.0455 14.717 13.1558 14.6523 13.247 14.5672C13.3382 14.4822 13.4078 14.379 13.4506 14.2652C13.4935 14.1515 13.5085 14.0302 13.4945 13.9103V13.5162C13.5007 13.1322 13.4255 12.7508 13.2733 12.3942C13.1212 12.0376 12.8951 11.7129 12.6081 11.4389C12.3212 11.1649 11.9792 10.9471 11.6018 10.7981C11.2245 10.6491 10.8194 10.5719 10.41 10.5709C9.09274 10.5556 7.77274 10.5709 6.45547 10.5709C6.00686 10.5674 5.56301 10.6574 5.15598 10.8344C4.74896 11.0114 4.38891 11.271 4.10183 11.5945C3.5513 12.2275 3.28694 13.0377 3.36545 13.8514C3.38999 14.4835 3.69547 14.788 4.37456 14.788L8.43817 14.7957ZM5.63182 6.86304C5.63111 7.2096 5.70325 7.55287 5.84409 7.87324C5.98494 8.19361 6.19172 8.48476 6.45264 8.73005C6.71356 8.97534 7.0235 9.16995 7.36467 9.30273C7.70584 9.4355 8.07154 9.50385 8.4409 9.50385C9.18214 9.50251 9.89281 9.22633 10.418 8.7355C10.9431 8.24467 11.2402 7.57898 11.2445 6.8835C11.2489 6.18332 10.957 5.51011 10.4329 5.01165C9.90879 4.51319 9.19533 4.23021 8.44909 4.2248C8.0782 4.22345 7.7107 4.29082 7.36763 4.42306C7.02456 4.5553 6.71267 4.7498 6.44991 4.99539C6.18714 5.24099 5.97867 5.53284 5.8364 5.85422C5.69414 6.17559 5.6209 6.52015 5.62091 6.86815L5.63182 6.86304ZM19.6882 10.5556C20.7 10.5556 21.7091 10.5556 22.7182 10.5556C22.832 10.5636 22.9463 10.5498 23.0543 10.5151C23.1622 10.4804 23.2615 10.4255 23.3462 10.3537C23.4309 10.282 23.4991 10.1948 23.5468 10.0975C23.5945 10.0002 23.6206 9.89491 23.6236 9.78788C23.6265 9.67833 23.6051 9.5694 23.5607 9.46803C23.5163 9.36666 23.45 9.27506 23.3659 9.19902C23.2817 9.12299 23.1817 9.06419 23.0721 9.02636C22.9625 8.98853 22.8457 8.97248 22.7291 8.97926C20.7 8.97926 18.6709 8.97926 16.6446 8.97926C16.4406 8.97377 16.2406 9.03331 16.0773 9.14815C15.9422 9.2485 15.8424 9.38463 15.7909 9.53886C15.7393 9.6931 15.7384 9.85833 15.7882 10.0131C15.8396 10.1724 15.9448 10.3117 16.088 10.41C16.2311 10.5083 16.4045 10.5603 16.5818 10.5581C17.6073 10.5658 18.6436 10.5607 19.6773 10.5607L19.6882 10.5556ZM19.6882 14.788C20.7 14.788 21.7091 14.788 22.7182 14.788C22.8345 14.7961 22.9514 14.7816 23.0616 14.7457C23.1718 14.7097 23.2729 14.6529 23.3588 14.5788C23.4447 14.5047 23.5135 14.4149 23.5609 14.3148C23.6083 14.2148 23.6334 14.1068 23.6346 13.9973C23.6345 13.888 23.6104 13.7798 23.5637 13.6796C23.517 13.5795 23.4488 13.4894 23.3632 13.4152C23.2777 13.3409 23.1767 13.2841 23.0667 13.2482C22.9566 13.2123 22.8398 13.1981 22.7236 13.2066H16.6364C16.5129 13.1946 16.3881 13.2091 16.2715 13.2491C16.1549 13.289 16.0495 13.3534 15.9633 13.4372C15.8771 13.521 15.8123 13.6222 15.774 13.7329C15.7356 13.8437 15.7246 13.9613 15.7418 14.0766C15.7653 14.2835 15.8739 14.4736 16.0446 14.6065C16.2152 14.7394 16.4344 14.8045 16.6554 14.788C17.6645 14.7957 18.6655 14.7931 19.6664 14.7931L19.6882 14.788ZM19.6882 6.34357C20.6973 6.34357 21.7064 6.34357 22.7182 6.34357C22.8332 6.35265 22.9489 6.33976 23.0585 6.30567C23.168 6.27158 23.269 6.21701 23.3554 6.14525C23.4419 6.0735 23.5119 5.98605 23.5612 5.88819C23.6106 5.79033 23.6383 5.68409 23.6427 5.5759C23.6432 5.46464 23.6189 5.35452 23.5715 5.25255C23.524 5.15058 23.4545 5.059 23.3673 4.98365C23.28 4.9083 23.177 4.85082 23.0648 4.81489C22.9526 4.77896 22.8336 4.76536 22.7155 4.77496H16.7155C16.1509 4.77496 15.78 5.09227 15.78 5.56567C15.78 6.03907 16.1591 6.35637 16.7182 6.35637C17.6727 6.34613 18.6654 6.34357 19.6582 6.34357H19.6882Z" fill="#C45C37"/>
</svg>
