<svg width="33" height="33" viewBox="0 0 33 33" fill="none" xmlns="http://www.w3.org/2000/svg">
<path d="M0 7.21873C0.128906 7.10701 0.111719 6.93513 0.154687 6.78904C0.670313 5.15623 2.2 4.07341 3.91016 4.12498C4.07344 4.13357 4.125 4.16795 4.125 4.33982C4.13359 5.03592 4.08203 5.73201 4.17656 6.4281C4.4 8.13826 5.99844 9.5992 7.73438 9.60779C10.3641 9.62498 12.9937 9.62498 15.632 9.60779C17.4797 9.5992 19.1039 8.02654 19.2156 6.17888C19.25 5.56873 19.2414 4.95857 19.2414 4.33982C19.2414 4.18513 19.2672 4.12498 19.4477 4.11638C21.5445 4.03045 23.3492 5.70623 23.3836 7.8117C23.4094 9.02342 23.3836 10.2351 23.3922 11.4554C23.3922 11.6703 23.3234 11.7219 23.1172 11.7304C21.5016 11.782 19.9719 12.1859 18.5195 12.8906C18.2531 13.0195 17.9867 13.0797 17.6945 13.0797C13.5523 13.0711 9.40156 13.0711 5.25938 13.0797C4.68359 13.0797 4.31406 13.3461 4.17656 13.8445C4.03047 14.3859 4.39141 14.9875 4.95 15.082C5.10469 15.1078 5.26797 15.1164 5.43125 15.1164C8.58516 15.1164 11.7477 15.1164 14.9016 15.1164C15.0219 15.1164 15.1336 15.1164 15.2797 15.1164C15.2281 15.2711 15.1164 15.3398 15.0305 15.4258C14.4805 16.0015 13.982 16.6203 13.5695 17.2992C13.4578 17.4797 13.3375 17.5312 13.1313 17.5312C10.5188 17.5226 7.91484 17.5226 5.30234 17.5226C4.76094 17.5226 4.35703 17.7719 4.20234 18.1929C3.94453 18.889 4.45156 19.5765 5.24219 19.5851C6.96953 19.5937 8.69687 19.5851 10.4328 19.5851C11.0086 19.5851 11.593 19.5937 12.1688 19.5851C12.3406 19.5851 12.4352 19.5937 12.3578 19.8086C12.1258 20.4617 11.9539 21.1406 11.8594 21.8281C11.8336 22.0172 11.7133 22.0086 11.5844 22.0086C10.8023 22.0086 10.0203 22.0086 9.22969 22.0086C7.90625 22.0086 6.59141 22.0086 5.26797 22.0086C4.71797 22.0086 4.33984 22.2664 4.19375 22.7133C3.97891 23.375 4.45156 24.0453 5.16484 24.0453C6.49687 24.0539 7.82891 24.0453 9.16094 24.0453C9.93437 24.0453 10.7078 24.0453 11.4813 24.0453C11.6445 24.0453 11.7305 24.0625 11.7391 24.2687C11.782 25.8156 12.1602 27.2937 12.7789 28.7117C12.7961 28.7633 12.8391 28.7976 12.8047 28.8836C12.7102 28.8836 12.607 28.8836 12.5039 28.8836C9.63359 28.8836 6.77188 28.8836 3.90156 28.8836C1.96797 28.875 0.515625 27.7234 0.06875 25.85C0.0601563 25.7984 0.06875 25.7383 0 25.7211C0 19.5508 0 13.389 0 7.21873Z" fill="white"/>
<path d="M12.2461 0C12.418 0.120312 12.6242 0.0945312 12.8133 0.163281C13.9648 0.558594 14.7812 1.30625 15.2195 2.44922C15.3141 2.69844 15.4344 2.76719 15.6836 2.75C16.0273 2.72422 16.3711 2.74141 16.7148 2.74141C17.4625 2.75 17.875 3.15391 17.8836 3.89297C17.8836 4.62344 17.9008 5.35391 17.8578 6.08438C17.7805 7.2875 16.732 8.25 15.5203 8.25C12.9766 8.25 10.4328 8.25 7.88906 8.25C6.59999 8.25 5.53437 7.21016 5.4914 5.92109C5.46562 5.21641 5.47421 4.50313 5.4914 3.79844C5.49999 3.21406 5.92109 2.79297 6.50546 2.75859C6.94374 2.73281 7.38202 2.75 7.8289 2.75C7.94921 2.75 8.04374 2.75859 8.09531 2.60391C8.58515 1.2375 9.54765 0.395312 10.9656 0.06875C10.9914 0.0601563 11.0086 0.0257812 11.0258 0.00859375C11.4297 0 11.8422 0 12.2461 0Z" fill="white"/>
<path d="M23.7102 14.4375C28.8406 14.4375 32.9914 18.5883 33 23.7102C33 28.8406 28.8492 33 23.7273 33C18.5797 33 14.4375 28.8406 14.4375 23.693C14.4461 18.5883 18.5969 14.4375 23.7102 14.4375ZM18.2273 23.7016C18.2188 24.1141 18.3906 24.4492 18.6742 24.7328C19.5594 25.6094 20.4359 26.4945 21.3211 27.3711C21.9828 28.0242 22.825 27.9898 23.4352 27.3023C24.9992 25.5148 26.5633 23.7273 28.1188 21.9398C28.6773 21.3039 28.643 20.4531 28.05 19.9375C27.4484 19.4133 26.6148 19.4992 26.0563 20.1437C24.8531 21.5187 23.65 22.8937 22.4555 24.2687C22.318 24.432 22.2406 24.4406 22.0945 24.2859C21.5789 23.7531 21.0633 23.2203 20.5219 22.7133C20.0922 22.3094 19.568 22.232 19.0352 22.4813C18.5109 22.7219 18.2531 23.143 18.2273 23.7016Z" fill="white"/>
</svg>
