<svg width="24" height="21" viewBox="0 0 24 21" fill="none" xmlns="http://www.w3.org/2000/svg">
<path d="M11.9715 20.9952H2.55752C1.95606 21.0152 1.36771 20.8231 0.903049 20.4548C0.438383 20.0866 0.129395 19.5677 0.0341832 18.9955C-0.0650475 18.4205 0.0534174 17.8302 0.368034 17.3322C2.3013 14.0405 4.23329 10.7451 6.16396 7.44594L9.75098 1.32729C9.95627 0.92277 10.2772 0.583041 10.676 0.348004C11.0748 0.112968 11.535 -0.00761288 12.0025 0.000398622C12.4657 -0.00780543 12.9217 0.110775 13.3176 0.342369C13.7134 0.573964 14.0328 0.909048 14.2386 1.3086C17.3675 6.64856 20.4978 11.991 23.6293 17.336C23.8214 17.6366 23.9425 17.9743 23.984 18.3251C24.0254 18.6759 23.9862 19.0311 23.8692 19.3657C23.7521 19.7003 23.5601 20.0059 23.3066 20.261C23.0532 20.5161 22.7445 20.7145 22.4026 20.8419C22.066 20.9552 21.7108 21.0084 21.3544 20.9989L11.9715 20.9952ZM10.8069 11.064V12.6862C10.8004 12.8312 10.8174 12.9762 10.8574 13.1161C10.9402 13.3771 11.1161 13.6016 11.354 13.7499C11.5919 13.8983 11.8766 13.9611 12.1578 13.9272C12.4407 13.897 12.7023 13.7682 12.8933 13.5651C13.0842 13.3619 13.1913 13.0985 13.1944 12.8245C13.1944 11.6696 13.1944 10.5146 13.1944 9.35965C13.2022 9.20413 13.1773 9.0487 13.121 8.90274C13.0646 8.75679 12.9782 8.62333 12.8668 8.51047C12.7554 8.39761 12.6213 8.30769 12.4728 8.24613C12.3242 8.18458 12.1643 8.15269 12.0025 8.15237C11.8403 8.15221 11.6798 8.18373 11.5306 8.24502C11.3814 8.3063 11.2467 8.39607 11.1345 8.50892C11.0224 8.62177 10.9352 8.75536 10.8783 8.90158C10.8213 9.0478 10.7957 9.20363 10.803 9.35965C10.7875 9.90909 10.7913 10.4772 10.7913 11.0454L10.8069 11.064ZM13.1982 16.2483C13.1993 16.0971 13.1693 15.9472 13.1102 15.8072C13.0511 15.6671 12.9639 15.5396 12.8535 15.432C12.7432 15.3244 12.612 15.2388 12.4673 15.1801C12.3226 15.1213 12.1673 15.0906 12.0103 15.0896C11.851 15.0891 11.6932 15.1192 11.5461 15.1782C11.399 15.2372 11.2658 15.324 11.154 15.4333C11.0423 15.5426 10.9543 15.6724 10.8954 15.8149C10.8364 15.9574 10.8077 16.1099 10.8108 16.2632C10.8118 16.4139 10.8436 16.5629 10.9045 16.7018C10.9653 16.8406 11.0539 16.9666 11.1653 17.0724C11.2767 17.1783 11.4086 17.262 11.5536 17.3188C11.6986 17.3755 11.8538 17.4042 12.0103 17.4032C12.1673 17.4003 12.3222 17.3676 12.4661 17.3071C12.61 17.2465 12.7402 17.1592 12.849 17.0502C12.9579 16.9413 13.0434 16.8127 13.1007 16.6719C13.1579 16.5311 13.1858 16.3808 13.1827 16.2296L13.1982 16.2483Z" fill="#C45C37"/>
</svg>
