<svg width="148" height="17" viewBox="0 0 148 17" fill="none" xmlns="http://www.w3.org/2000/svg">
<path d="M87.4251 13.5999C87.7226 12.7712 88.0095 11.9424 88.2964 11.1137C89.4973 7.6712 90.7087 4.23934 91.8882 0.786224C92.0264 0.393101 92.207 0.276226 92.6002 0.286851C94.0773 0.297476 94.0773 0.286851 94.5768 1.7106C95.9157 5.56746 97.2653 9.42432 98.6149 13.2812C98.6574 13.3981 98.6999 13.5149 98.753 13.6531C98.9762 13.5468 98.9762 13.3343 99.0293 13.1643C100.443 9.05245 101.867 4.94059 103.259 0.818099C103.397 0.403726 103.588 0.265601 104.013 0.286851C104.63 0.318726 105.257 0.308101 105.873 0.286851C106.16 0.276226 106.319 0.371851 106.425 0.6481C108.53 5.84371 110.634 11.0393 112.759 16.2349C112.897 16.5856 112.855 16.7131 112.451 16.7024C111.994 16.6812 111.526 16.6599 111.069 16.7024C110.634 16.7449 110.453 16.5537 110.304 16.1712C108.615 11.8893 106.904 7.61808 105.203 3.34684C105.129 3.16622 105.055 2.99622 104.938 2.73059C104.151 4.91934 103.407 6.99121 102.653 9.0737C101.803 11.4537 100.942 13.8337 100.103 16.2243C99.9751 16.5856 99.8051 16.7343 99.4225 16.7024C98.8487 16.6493 98.1261 16.9256 97.7222 16.5856C97.3503 16.2668 97.2866 15.5762 97.0953 15.0449C95.8201 11.4006 94.5555 7.76683 93.2803 4.12246C93.2272 3.96309 93.2166 3.77184 93.0465 3.65497C92.8765 3.80372 92.8553 4.02684 92.7915 4.21809C91.3994 8.19183 90.0073 12.1656 88.6365 16.1499C88.4877 16.5643 88.3177 16.7662 87.8608 16.7131C87.3188 16.6599 86.6599 16.9043 86.2455 16.6174C85.8311 16.3306 85.7992 15.6506 85.6185 15.1299C83.9077 10.3912 82.2074 5.64184 80.5071 0.892474C80.2946 0.286851 80.2946 0.276226 80.911 0.286851C81.4954 0.297476 82.1861 0.0743515 82.6325 0.371851C83.0788 0.66935 83.0894 1.40247 83.2807 1.95497C84.5453 5.59934 85.7886 9.2437 87.0319 12.8987C87.1063 13.1324 87.2019 13.3556 87.2763 13.5893C87.3294 13.5999 87.3826 13.5999 87.4251 13.5999Z" fill="#C45C37"/>
<path d="M24.9725 13.6956C25.3657 12.5693 25.7589 11.4749 26.1415 10.3806C27.2466 7.2037 28.3518 4.03745 29.4464 0.849963C29.5845 0.435589 29.7651 0.26559 30.2327 0.276215C31.6673 0.30809 31.6673 0.28684 32.1455 1.63621C33.4845 5.48245 34.8234 9.31806 36.1624 13.1643C36.2155 13.3343 36.2899 13.4937 36.3643 13.6743C36.5662 13.4937 36.5874 13.2599 36.6618 13.0474C38.0539 8.98869 39.4566 4.91933 40.8275 0.849963C40.9656 0.435589 41.1463 0.233715 41.6032 0.28684C42.0283 0.32934 42.4533 0.318715 42.8784 0.28684C43.3353 0.254965 43.3672 0.414339 43.2291 0.796838C42.4002 3.08121 41.5926 5.36558 40.7743 7.63932C39.7542 10.4868 38.7234 13.3343 37.7139 16.1818C37.5757 16.5855 37.3738 16.7449 36.9487 16.7024C36.4068 16.6599 35.7586 16.8405 35.3335 16.6068C34.8978 16.3624 34.8978 15.6399 34.7172 15.1299C33.442 11.4962 32.1774 7.85182 30.8916 4.20745C30.8278 4.0162 30.8066 3.79308 30.594 3.60183C30.3071 4.40933 30.0308 5.18495 29.7545 5.9712C28.575 9.36057 27.3848 12.7499 26.2159 16.1499C26.0777 16.5643 25.8864 16.7555 25.4295 16.713C24.8875 16.6599 24.2393 16.9043 23.8142 16.6174C23.3892 16.3305 23.3679 15.6505 23.1873 15.1405C21.4764 10.4018 19.7761 5.65245 18.0759 0.903088C17.8633 0.297465 17.8633 0.28684 18.5116 0.297465C19.096 0.30809 19.7868 0.0743404 20.2224 0.39309C20.6369 0.701214 20.6475 1.40246 20.8388 1.94434C22.1246 5.6737 23.3998 9.40306 24.6856 13.1324C24.7494 13.3131 24.7706 13.5149 24.9725 13.6956Z" fill="#C45C37"/>
<path d="M57.405 12.8562C57.405 12.1656 57.405 11.475 57.405 10.7843C57.405 7.4906 57.4156 4.19686 57.3943 0.903114C57.3943 0.414366 57.5325 0.233741 58.0213 0.286866C58.4039 0.329366 58.7971 0.308116 59.1902 0.286866C59.5197 0.276241 59.6153 0.403741 59.6153 0.72249C59.6047 1.83811 59.6153 2.95373 59.6153 4.06936C59.6153 8.07497 59.6047 12.07 59.6259 16.0756C59.6259 16.5962 59.4559 16.6706 58.9671 16.7237C57.7769 16.8724 57.0649 16.4156 56.3848 15.4274C53.8238 11.7512 51.1565 8.15997 48.5211 4.53685C48.4361 4.40935 48.3298 4.3031 48.1917 4.13311C48.0642 4.37748 48.1067 4.58998 48.1067 4.79185C48.1067 8.54247 48.0961 12.3037 48.1173 16.0543C48.1173 16.5537 48.0004 16.7768 47.4797 16.7024C46.9803 16.6387 46.332 16.9256 46.0026 16.5749C45.7051 16.2562 45.9176 15.6293 45.9176 15.1406C45.907 10.3912 45.9176 5.65248 45.907 0.903114C45.907 0.414366 46.0557 0.339991 46.5233 0.265616C47.7666 0.0849918 48.4786 0.605615 49.1906 1.61499C51.741 5.29123 54.4083 8.89309 57.033 12.5268C57.118 12.6543 57.2243 12.7712 57.32 12.8881C57.3306 12.8775 57.3731 12.8668 57.405 12.8562Z" fill="#C45C37"/>
<path d="M71.2302 -3.7659e-05C76.1078 0.0105873 79.7953 3.68683 79.774 8.52119C79.7528 13.3874 76.0653 17.0105 71.1346 16.9999C66.2463 16.9893 62.5908 13.3449 62.6014 8.47869C62.6014 3.60183 66.2782 -0.0106626 71.2302 -3.7659e-05ZM77.4999 8.51056C77.5105 4.83432 74.8433 2.12496 71.2196 2.11433C67.564 2.10371 64.8436 4.8237 64.833 8.47869C64.833 12.1443 67.5322 14.8749 71.1877 14.8749C74.822 14.8855 77.4893 12.1868 77.4999 8.51056Z" fill="#C45C37"/>
<path d="M17.1726 8.49998C17.1726 13.345 13.4958 17 8.60756 17C3.65556 17 0 13.3875 0 8.49998C0 3.61249 3.65556 0 8.60756 0C13.4958 0 17.1726 3.64436 17.1726 8.49998ZM14.8985 8.5106C14.8985 4.83436 12.2312 2.12499 8.60756 2.11437C4.952 2.10374 2.23159 4.82374 2.23159 8.48935C2.23159 12.1656 4.93075 14.8856 8.5863 14.8856C12.2206 14.8856 14.8985 12.1762 14.8985 8.5106Z" fill="#C45C37"/>
<path d="M137.275 0.297499C138.507 0.350624 139.984 0.17 141.44 0.478124C145.638 1.37062 148.379 5.31249 147.774 9.5731C147.157 13.855 144.001 16.6387 139.676 16.7025C137.689 16.7237 135.713 16.7025 133.725 16.7131C133.332 16.7131 133.162 16.6387 133.162 16.1925C133.173 11.0606 133.173 5.92873 133.162 0.786248C133.162 0.371874 133.311 0.276249 133.693 0.286874C134.809 0.308124 135.925 0.297499 137.275 0.297499ZM135.372 8.4681C135.372 10.3593 135.383 12.2506 135.362 14.1418C135.362 14.5668 135.489 14.6837 135.904 14.6731C137.051 14.6518 138.199 14.6625 139.357 14.6625C142.705 14.6518 145.064 12.6012 145.542 9.29685C146.031 5.90748 143.767 2.86874 140.378 2.41187C138.89 2.20999 137.37 2.37999 135.872 2.32687C135.457 2.31624 135.372 2.45437 135.372 2.83687C135.383 4.71749 135.372 6.58748 135.372 8.4681Z" fill="#C45C37"/>
<path d="M129.538 16.7025C128.359 16.7025 128.359 16.7025 127.913 15.5868C127.594 14.7793 127.264 13.9825 126.956 13.175C126.839 12.8775 126.691 12.7393 126.34 12.7393C123.949 12.7606 121.558 12.75 119.167 12.7393C118.848 12.7393 118.699 12.8456 118.582 13.1325C118.179 14.1843 117.732 15.2362 117.339 16.2881C117.222 16.6068 117.052 16.7237 116.712 16.7025C116.287 16.6812 115.862 16.7025 115.437 16.6918C114.821 16.6918 114.821 16.6918 115.044 16.1393C116.138 13.4406 117.243 10.7312 118.338 8.03248C119.326 5.60999 120.315 3.18749 121.282 0.754374C121.42 0.40375 121.59 0.255001 121.972 0.276251C122.482 0.308125 123.003 0.31875 123.513 0.276251C123.96 0.244376 124.161 0.414375 124.321 0.818124C126.255 5.62061 128.21 10.4231 130.155 15.2256C130.293 15.5656 130.42 15.9162 130.58 16.2562C130.761 16.6281 130.612 16.7237 130.261 16.7025C130.027 16.6918 129.783 16.7025 129.538 16.7025ZM122.822 2.81562C122.748 2.84749 122.716 2.85812 122.716 2.86874C121.707 5.37624 120.708 7.88373 119.698 10.3912C119.581 10.6781 119.751 10.7206 119.985 10.7206C121.866 10.7206 123.736 10.7206 125.617 10.7206C125.915 10.7206 125.936 10.6143 125.84 10.37C124.831 7.86248 123.832 5.34436 122.822 2.81562Z" fill="#C45C37"/>
</svg>
