<svg width="21" height="17" viewBox="0 0 21 17" fill="none" xmlns="http://www.w3.org/2000/svg">
<path d="M6.20811 13.3251C4.27618 13.0541 2.94719 12.1515 2.27165 10.3299C2.80394 10.2986 3.31464 10.5085 3.92247 10.1893C2.78039 9.78399 1.92186 9.18898 1.35622 8.24496C1.04077 7.71832 0.83669 7.15701 0.772914 6.54997C0.736611 6.20529 0.781745 5.97037 1.24486 6.16967C1.57306 6.31072 1.93462 6.37715 2.30354 6.48306C2.32071 6.15571 2.08032 6.07002 1.94738 5.91838C0.754272 4.55699 0.464336 3.02567 1.05304 1.33309C1.17323 0.988408 1.27233 0.702459 1.70208 1.17182C3.65461 3.30536 6.09184 4.61043 8.97109 5.11204C9.1634 5.14574 9.36405 5.13419 9.55636 5.16788C10.1279 5.26801 10.252 5.02347 10.2486 4.4896C10.2314 1.91846 11.9244 0.110824 14.5103 0.00395415C15.4375 -0.0345575 16.402 0.145003 17.1178 0.809329C17.7015 1.3509 18.2809 1.30854 18.9334 1.03655C19.3813 0.849766 19.8356 0.678389 20.4351 0.441543C20.1839 1.31191 19.7311 1.89295 19.0536 2.44174C19.7914 2.65644 20.3291 2.20056 21.0002 2.15724C20.6706 2.92843 20.0892 3.4209 19.4794 3.87486C19.1154 4.14588 18.9447 4.4405 18.9545 4.90697C19.0511 9.65305 15.9031 14.5994 10.9197 16.2539C7.29034 17.4589 3.73605 17.2432 0.371124 15.308C0.295084 15.2642 0.232289 15.1987 0.000732422 15.0124C2.37222 15.192 4.38215 14.714 6.20811 13.3251Z" fill="white" fill-opacity="0.45"/>
</svg>
