<svg width="22" height="17" viewBox="0 0 22 17" fill="none" xmlns="http://www.w3.org/2000/svg">
<path d="M5.07285 14.2136C5.51877 14.4424 5.92622 14.7028 6.3686 14.8645C6.78972 15.0184 6.79781 15.239 6.60801 15.5649C6.38834 15.9415 6.1469 16.3056 5.94242 16.6905C5.76273 17.0293 5.56381 17.0541 5.20596 16.9353C3.50327 16.3681 1.94482 15.5262 0.483052 14.4817C0.193533 14.2746 0.0482667 14.0199 0.0290329 13.6423C-0.183551 9.38234 0.765485 5.4385 3.06797 1.85521C3.20919 1.63567 3.35243 1.44558 3.59589 1.3211C4.85318 0.680059 6.20308 0.34172 7.55957 0.0183611C7.93818 -0.0720348 8.0799 0.186756 8.16291 0.457427C8.34917 1.06489 8.6969 1.1403 9.29973 1.0902C10.4593 0.993604 11.6336 1.04009 12.7998 1.07935C13.2862 1.09588 13.641 1.0308 13.7994 0.50185C13.9356 0.0488374 14.1983 -0.0146979 14.6736 0.0777642C15.9273 0.322608 17.1152 0.745661 18.29 1.23018C18.5395 1.33298 18.7132 1.51273 18.8513 1.7333C21.1634 5.41887 22.2345 9.43503 21.9571 13.8164C21.9373 14.1243 21.7961 14.2777 21.5795 14.4301C20.1122 15.4637 18.5411 16.2824 16.8586 16.8899C16.4264 17.0459 16.1434 16.9916 15.9475 16.5618C15.905 16.4689 15.8438 16.3842 15.7881 16.2974C15.0714 15.1744 15.0739 15.1801 16.2128 14.5793C16.4203 14.4698 16.8242 14.4135 16.7245 14.1181C16.6055 13.7642 16.2512 13.9512 16.0057 14.0545C14.1978 14.8128 12.324 15.1305 10.3677 15.0644C8.90139 15.0153 7.52161 14.648 6.15601 14.1454C5.84119 14.0282 5.46663 13.71 5.07285 14.2136ZM16.6278 9.50218C16.6683 8.20926 15.821 7.13743 14.7444 7.11883C13.5949 7.0992 12.7168 7.99696 12.6753 9.23565C12.6327 10.4986 13.4988 11.5942 14.5637 11.6257C15.6681 11.6588 16.5904 10.7099 16.6278 9.50218ZM9.31845 9.34205C9.31289 8.07754 8.45546 7.10127 7.36673 7.11935C6.26129 7.13743 5.37552 8.11009 5.36692 9.31468C5.35832 10.5348 6.24256 11.6097 7.26803 11.6273C8.46609 11.6469 9.32453 10.6908 9.31845 9.34205Z" fill="white" fill-opacity="0.45"/>
</svg>
