<svg width="21" height="21" viewBox="0 0 21 21" fill="none" xmlns="http://www.w3.org/2000/svg">
<path d="M10.3565 20.9991C7.53732 20.9991 4.71818 21.0015 1.89904 20.9981C0.550228 20.9967 0.00315104 20.4511 0.00266691 19.0964C-0.000237927 13.3608 -0.000237927 7.62573 0.00266691 1.89014C0.00266691 0.564086 0.574435 0.00248532 1.9247 0.00200118C7.66029 -0.000419512 13.3954 -0.000903651 19.131 0.00200118C20.4135 0.00248532 20.9969 0.585388 20.9978 1.87417C21.0012 7.63396 21.0012 13.3938 20.9978 19.1536C20.9973 20.4225 20.4077 20.9957 19.1053 20.9976C16.1889 21.002 13.2724 20.9991 10.3565 20.9991ZM11.2497 9.0186C11.1684 7.87506 11.1684 7.87506 10.0723 7.87506C9.63509 7.87506 9.19646 7.89588 8.76074 7.86925C8.33953 7.84408 8.15508 7.9593 8.15798 8.4294C8.1759 11.418 8.17348 14.4066 8.15992 17.3947C8.15798 17.8144 8.31097 17.9466 8.71377 17.9326C9.36881 17.9093 10.0282 17.8895 10.6808 17.9374C11.2492 17.979 11.3741 17.7563 11.3644 17.2286C11.3344 15.6014 11.3562 13.9733 11.3548 12.3451C11.3543 11.7346 11.5334 11.1846 11.9914 10.7784C12.5356 10.2958 13.1683 10.2638 13.8287 10.5432C14.4765 10.8177 14.7108 11.3701 14.7215 12.0028C14.75 13.7273 14.7636 15.4533 14.7244 17.1773C14.7103 17.8023 14.9185 17.9882 15.5111 17.9355C16.0175 17.8904 16.5355 17.8822 17.04 17.9369C17.725 18.011 17.9695 17.7999 17.9444 17.0737C17.8892 15.4722 17.9284 13.8672 17.9264 12.2633C17.9255 11.509 17.8224 10.7644 17.6364 10.0372C17.3072 8.75136 16.5365 7.95107 15.1722 7.694C13.6297 7.404 12.3685 7.82326 11.2497 9.0186ZM3.07356 12.8443C3.07356 14.2778 3.09777 15.7118 3.06146 17.1444C3.04693 17.7205 3.16845 17.9965 3.81187 17.9384C4.41414 17.8841 5.02706 17.903 5.63272 17.934C6.0941 17.9577 6.2742 17.8222 6.27129 17.3269C6.25144 14.363 6.2529 11.3986 6.27033 8.43473C6.27323 7.96996 6.09507 7.85183 5.66951 7.86877C5.01447 7.89491 4.35556 7.90847 3.70246 7.86538C3.16167 7.82956 3.05565 8.06146 3.06436 8.54414C3.08954 9.97671 3.07356 11.4107 3.07356 12.8443ZM4.72011 2.91555C3.64291 2.90925 2.92154 3.59915 2.90798 4.64876C2.89443 5.66449 3.68164 6.54029 4.60683 6.53884C5.59447 6.53787 6.42525 5.725 6.43397 4.7514C6.44365 3.68436 5.73148 2.92136 4.72011 2.91555Z" fill="white" fill-opacity="0.45"/>
</svg>
