<svg width="23" height="21" viewBox="0 0 23 21" fill="none" xmlns="http://www.w3.org/2000/svg">
<path d="M13.6033 15.5342C15.4351 15.2726 17.1187 14.8599 18.0107 13.3068C19.0157 11.5563 19.1841 9.70585 18.0325 7.92502C17.7739 7.52519 17.6246 7.14028 17.7639 6.73746C17.9498 6.19839 17.7512 5.70258 17.7162 5.18987C17.6744 4.5762 17.294 4.38424 16.6853 4.52796C16.6085 4.54636 16.5211 4.55233 16.4581 4.59161C15.0378 5.47382 13.5015 5.53897 11.8694 5.28037C11.1526 5.16649 10.3835 5.18638 9.65611 5.39475C8.9881 5.58621 8.39267 5.53748 7.79723 5.12074C7.3353 4.79749 6.77376 4.59957 6.18575 4.51254C5.69467 4.43994 5.36093 4.55133 5.27352 5.07499C5.20783 5.46786 5.01501 5.87216 5.14268 6.2526C5.39007 6.9886 5.11778 7.56547 4.76126 8.20748C3.01468 11.3519 4.95303 14.9141 8.67979 15.4357C9.19576 15.5079 9.29959 15.5526 9.05061 16.042C8.7529 16.6273 8.61887 17.2454 7.71353 17.2603C6.76211 17.2763 5.98921 17.0122 5.46105 16.2573C5.03779 15.6516 4.5234 15.1712 3.74679 15.0135C3.54814 14.9733 3.28274 14.9379 3.16725 15.1463C3.02634 15.3999 3.31664 15.4959 3.46762 15.5929C4.15152 16.034 4.56207 16.6347 4.86509 17.3553C5.30478 18.4007 6.45698 18.9014 8.01337 18.7269C8.51716 18.6702 8.70045 18.7398 8.64112 19.2227C8.6141 19.4445 8.63688 19.6713 8.64006 19.896C8.65648 21.0557 8.40009 21.2154 7.23305 20.7723C2.5342 18.9895 -0.428137 14.6008 0.0502236 9.85902C0.606987 4.34595 5.28094 0.148731 11.2072 0.00351921C16.5158 -0.126276 21.6188 3.34588 22.7578 8.49393C23.7362 12.9169 21.7078 17.6194 17.3719 20.0313C16.7049 20.4023 16.0051 20.6867 15.2815 20.9249C14.6908 21.1189 14.3772 20.9359 14.3619 20.3058C14.3359 19.2366 14.4344 18.1679 14.2691 17.0952C14.1817 16.5328 13.9094 16.0748 13.6033 15.5342Z" fill="white" fill-opacity="0.45"/>
</svg>
